# xmcd CD database file
#
# Track frame offsets:
#	187
#	16577
#	38327
#	54677
#
# Disc length: 1016 seconds
#
# Revision: 0
# Processed by: cddbd v1.5.1PL0 Copyright (c) Steve Scherf et al.
# Submitted via: CDex 1.51
#
DISCID=2003f604
DTITLE=高橋洋子 - もう一度逢いたくて
DYEAR=1992
DGENRE=JPop
TTITLE0=もう一度逢いたくて
TTITLE1=P.S. I miss you
TTITLE2=もう一度逢いたくて（オリジナルカラオケ）
TTITLE3=P.S. I miss you（オリジナルカラオケ）
EXTD=YEAR: 1992
EXTT0=
EXTT1=
EXTT2=
EXTT3=
PLAYORDER=
